<svg id="bb5e65c7-a306-47bb-829f-a7ac48d31837" data-name="Layer 1" xmlns="http://www.w3.org/2000/svg" width="888" height="594.64886" viewBox="0 0 888 594.64886"><title>conceptual_idea</title><path d="M739.11132,734.824c-12.202-2.71534-27.05187-14.00842-23.87268-29.531,1.57672-7.69836,7.62838-12.6817,13.90318-15.904,8.6794-4.45709,18.56423-6.13665,28.09008-6.561,10.98748-.48942,21.9627.74462,32.8681,2.04968,10.7659,1.28837,21.53272,2.442,32.34676,3.14634a503.435,503.435,0,0,0,63.99185.07744,499.57888,499.57888,0,0,0,62.25906-7.80089q15.31254-2.91137,30.44155-6.83108a238.92144,238.92144,0,0,0,27.96182-8.61034c11.99129-4.74314,31.49205-13.97293,29.90194-31.06647-.84312-9.06349-7.32153-16.3023-13.85611-21.34551-7.90114-6.09789-17.04378-10.11-25.99834-14.00607-41.65158-18.12251-83.38442-36.02985-125.0765-54.04324-9.73046-4.20412-19.52564-8.29559-28.96912-13.22228-8.8414-4.61259-17.64145-9.97062-24.75664-17.37915-6.21454-6.47077-11.76775-15.15763-11.57183-24.86819.16247-8.0532,4.61059-14.887,10.05842-19.99436,13.48773-12.64488,32.56735-17.77176,49.81146-20.45726,21.424-3.33646,43.15815-3.3192,64.59611-6.541,17.3099-2.6014,35.80533-7.62331,49.88327-19.39143,5.39767-4.51206,10.15957-10.3195,12.16054-17.50459a28.85125,28.85125,0,0,0-2.50063-20.7717c-3.81349-7.50457-9.89646-13.48276-16.29275-18.378a101.37552,101.37552,0,0,0-24.71107-13.60175c-19.01341-7.46478-39.007-11.35145-58.48286-17.08-9.55137-2.80941-19.1994-5.8901-28.06846-10.71569-7.514-4.08832-15.69923-9.599-19.87965-17.79384-8.62523-16.90793,11.95169-26.98483,23.61115-30.80179a177.48522,177.48522,0,0,1,24.40246-5.75556c1.75812-.311,1.01217-3.20234-.73774-2.89283a170.438,170.438,0,0,0-25.6255,6.1648c-7.031,2.40679-14.28557,5.5698-19.80838,11.01268-4.63841,4.57128-7.52316,11.06681-6.28679,17.92345,1.46284,8.11258,7.82165,14.36356,13.79365,18.89126,7.89732,5.98741,16.90168,9.89758,26.03121,13.085,9.61507,3.35693,19.43416,5.97312,29.24992,8.5393,19.61407,5.12779,40.10807,9.69745,57.81427,20.609,12.38605,7.633,29.2122,21.94455,25.09215,39.68392-1.82891,7.87461-7.38283,14.03127-13.37629,18.55958-7.24331,5.47262-15.54106,9.21071-23.95542,12.00066-39.237,13.00983-82.42,3.70626-120.64578,21.37631-12.997,6.00792-28.7837,16.94655-28.91078,34.15759-.066,8.94077,4.28393,17.14073,9.66173,23.622,6.44109,7.76279,14.78185,13.50329,23.26812,18.301a289.74919,289.74919,0,0,0,27.78564,13.25413q15.68476,6.78768,31.37637,13.5569l63.48337,27.42849,31.54205,13.628c9.62675,4.15931,19.50071,8.14912,28.25364,14.25477,7.1668,4.99924,15.634,13.20089,14.90284,23.385-.58069,8.08792-7.102,13.92448-13.06115,17.82674-7.7164,5.053-16.38459,8.32125-25.00912,11.03708-9.9478,3.13252-20.05918,5.73108-30.19017,8.06747a485.73009,485.73009,0,0,1-63.33944,10.21421,504.94956,504.94956,0,0,1-64.34553,1.976q-16.27819-.53959-32.506-2.14553c-11.15154-1.1066-22.25537-2.81141-33.43569-3.56776-10.1128-.68413-20.323-.52556-30.2821,1.6733-8.31563,1.836-17.10085,5.10858-23.41311,11.49423a22.56811,22.56811,0,0,0-6.55106,17.1739,27.8328,27.8328,0,0,0,7.67362,17.01817,35.86624,35.86624,0,0,0,18.56266,10.26667c1.74311.3879,2.48858-2.50322.73774-2.89284Z" transform="translate(-156 -152.67557)" fill="#e6e6e6"/><rect y="584.39444" width="888" height="2.24072" fill="#3f3d56"/><path d="M969.50138,630.316l41.75808,61.91715-38.87821,38.87821-5.03977-10.07954,8.6396-20.15907s-1.43993-18.71914-6.4797-23.75891-27.35874-35.27837-27.35874-35.27837Z" transform="translate(-156 -152.67557)" fill="#ffb8b8"/><path d="M916.22383,430.16516s7.91808,12.53226-8.64115,66.52978c0,0,77.23943,130.36039,65,139s-45.3604,27.75973-54,22-71.47567-200.891-71.47567-200.891Z" transform="translate(-156 -152.67557)" fill="#2f2e41"/><path d="M1003.69981,681.07361l12.59942,12.59942c6.4797,6.4797,10.7995,15.83927-1.43994,23.75891s-54.71748,37.43827-69.11682,28.0787,17.27921-17.99917,17.27921-17.99917,5.23818-19.4221,8.01884-15.1108,2.78066,12.9509,2.78066,12.9509Z" transform="translate(-156 -152.67557)" fill="#2f2e41"/><path d="M851.42682,664.15439s-23.03894,42.478-23.03894,47.51781,1.43993,19.43911,1.43993,19.43911l-43.918,10.7995-15.1193-7.19967,5.03977-12.9594s27.35874-9.35957,33.11847-27.35874,12.23944-36.71831,12.23944-36.71831Z" transform="translate(-156 -152.67557)" fill="#ffb8b8"/><circle cx="722.06559" cy="58.61966" r="30.23861" fill="#ffb8b8"/><path d="M870.146,237.214l14.43673,41.4809,31.64115-14.12216s-21.599-33.11847-21.599-37.43828Z" transform="translate(-156 -152.67557)" fill="#ffb8b8"/><path d="M865.82615,384.80725H903.9844s27.35874,41.75807,11.51947,85.676c-2.42557,6.72543-4.83339,16.14617-7.23666,27.28418-5.527,25.61482-11.02985,60.31216-16.66911,92.19578-7.9212,44.78549-16.11147,84.01936-25.01542,84.73168-17.99917,1.43993-53,1.19966-53-6s23.4448-215.49084,23.4448-215.49084l5.03977-8.6396.95257-37.63295a22.699,22.699,0,0,1,22.80631-22.1243Z" transform="translate(-156 -152.67557)" fill="#2f2e41"/><path d="M828.02789,711.31222s8.27962,14.03935,6.11972,24.11889-5.75973,8.6396-21.599,10.07953-69.83679,1.43994-69.83679-8.6396,42.12268-23.16931,42.30036-19.14431,1.61762,11.94464-2.70218,13.38458-.36.36-.36.36Z" transform="translate(-156 -152.67557)" fill="#2f2e41"/><path d="M852.04579,470.91294s-8.65955,50.50214-27.77418,33.10136,12.72589-41.59372,12.72589-41.59372Z" transform="translate(-156 -152.67557)" fill="#ffb8b8"/><path d="M911.84321,407.31359a6.064,6.064,0,0,0,6.20784-.73481,6.36064,6.36064,0,0,0,2.35531-4.01169c3.01995-17.41063,6.697-65.67763,8.81487-90.08453,2.65753-30.62576-10.617-54.34631-10.72835-54.49066l-7.82278-10.75633a6.14011,6.14011,0,0,0-7.35329-2.06393s-24.42227,25.33841-24.51227,26.31676c-.38319,4.201-3.28977,13.51063-18.44,28.66087-16.57682,16.57681-16.66892,31.0447-16.30191,35.08432q.03612.39839.037.79611a17.76021,17.76021,0,0,0,.73007,5.35646c6.94337,21.88991,1.50591,48.097-7.2258,75.45294a6.16986,6.16986,0,0,0,2.48681,6.6952c2.55012,1.73488-.508-.83936.40165.27525,6.01787,7.37391,14.67776-2.90342,24.58363-14.11739,3.45078-3.90639,7.36209-8.33411,11.97156-12.94359,6.33768-6.338,18.44739,8.12459,24.07776,8.12459A26.14578,26.14578,0,0,1,911.84321,407.31359Z" transform="translate(-156 -152.67557)" fill="#6c63ff"/><path d="M919.11458,271.49892s14.276,14.9744,3.4681,31.196-11.00389,29.034-11.00389,29.034-15.264,117.87138-42.54829,109.0874l-16.51907,33.66615-22.0261-10.77681,16.63087-29.46956s-10.54741-1.81881-6.65508-8.71594c2.73383-4.84429,20.49165-58.71309,30.82023-90.35064,4.3769-13.4069,7.41967-22.82157,7.41967-22.82157S893.00368,265.0305,919.11458,271.49892Z" transform="translate(-156 -152.67557)" fill="#6c63ff"/><polygon points="759.864 179.214 744.696 236.253 756.232 174.753 759.864 179.214" opacity="0.2"/><path d="M845.07435,197.89727s-5.08368-39.56352,36.3958-26.58972c0,0,29.62491-5.43573,39.34008,31.6205l9.83726,38.84407-4.79419-2.60944-2.23508,4.88562-7.76881,1.96745-3.32447-6.59844-1.60822,8.013-63.63084,6.34346s28.499-16.8541,28.95089-47.06069l-5.42845,5.73647Z" transform="translate(-156 -152.67557)" fill="#2f2e41"/><path d="M250.61927,156A3.63286,3.63286,0,0,0,247,159.63825v294.7235A3.63254,3.63254,0,0,0,250.61927,458h420.762A3.63212,3.63212,0,0,0,675,454.36175V159.63825A3.63244,3.63244,0,0,0,671.38122,156Z" transform="translate(-156 -152.67557)" fill="#3f3d56"/><path d="M249.10573,329.21056c12.8352-.03717,24.95256,4.52447,35.521,11.61767,11.093,7.44524,20.46845,17.30946,28.70416,27.75616,9.10107,11.54438,16.89921,24.03566,25.2703,36.10179,7.73081,11.14323,16.01453,21.97621,25.97813,31.2352,9.42648,8.75985,20.34374,16.12485,32.65637,20.11911,1.5.4866,3.01675.91657,4.54616,1.30039,1.72378.43261,2.45916-2.22947.734-2.66242-12.644-3.17317-23.94908-10.04613-33.66773-18.61218-10.14125-8.93852-18.57263-19.54531-26.32375-30.56958-8.43932-12.00309-16.205-24.48262-25.12832-36.14262-8.25624-10.78839-17.54089-20.93207-28.56923-28.94838-10.23381-7.43877-22.08813-12.73711-34.79618-13.77123-1.63868-.13335-3.281-.18973-4.92495-.185a1.38136,1.38136,0,0,0,0,2.76106Z" transform="translate(-156 -152.67557)" fill="#6c63ff"/><path d="M250.54,456.68133c22.57813-22.83768,53.44392-33.63314,84.09514-40.63616,32.05829-7.32449,65.13252-11.25663,95.59206-24.32381a133.13368,133.13368,0,0,0,39.4316-25.41812,130.83845,130.83845,0,0,0,26.41835-35.63759,135.0823,135.0823,0,0,0,12.10163-87.39118,149.29305,149.29305,0,0,0-44.01227-78.74166q-4.10151-3.8555-8.49293-7.38246c-1.37136-1.10442-3.337.83728-1.95237,1.95236a147.51181,147.51181,0,0,1,49.41219,74.90273,132.28485,132.28485,0,0,1-5.94226,87.82165,130.77561,130.77561,0,0,1-23.73238,36.68861,125.43167,125.43167,0,0,1-36.88989,27.26079c-29.54612,14.58764-62.6173,19.10322-94.51772,25.82066-30.07821,6.33371-60.75968,15.3684-84.87514,35.26941a115.12231,115.12231,0,0,0-8.58837,7.86241c-1.25051,1.26489.70071,3.21841,1.95236,1.95236Z" transform="translate(-156 -152.67557)" fill="#6c63ff"/><path d="M248.84624,283.79322a179.10938,179.10938,0,0,1,105.2475,3.60459c9.85656,3.38036,19.96636,7.30913,28.21223,13.84489,7.09373,5.62256,13.32262,14.134,11.55053,23.69061-1.63354,8.8094-9.7367,15.76792-18.45788,17.04116-8.99477,1.31318-17.19022-4.16044-21.31594-11.9169a22.99322,22.99322,0,0,1,1.66748-24.696c5.2142-7.023,13.88316-11.03364,22.40248-12.1456,9.73851-1.27109,19.31666,1.59942,27.74,6.39919,19.03751,10.84787,31.19467,29.75987,47.18264,44.17672A79.31436,79.31436,0,0,0,479.548,360.09471a82.22179,82.22179,0,0,0,29.53985,4.46748c21.03834-.5357,41.21178-8.13562,58.39994-20.05736,17.24163-11.95882,31.48233-27.66,43.95059-44.41684,6.667-8.96022,12.46166-18.58788,19.43849-27.31155,6.86751-8.587,15.36534-16.22094,26.23165-19.09556a28.95183,28.95183,0,0,1,15.1266-.08356,1.38171,1.38171,0,0,0,.734-2.66243c-10.56491-2.88089-21.67107.49121-30.43008,6.6398-9.36918,6.57692-16.08285,16.10965-22.45189,25.4456-12.7247,18.6523-26.42849,36.72842-43.82228,51.31994-17.36589,14.56811-38.26549,25.00734-61.04862,27.09921a82.88231,82.88231,0,0,1-32.38843-3.15574c-10.95663-3.44206-20.45772-9.65882-28.85609-17.408-16.501-15.22543-29.33565-35.21049-49.98808-45.40193-8.70487-4.29563-18.23107-6.35656-27.8776-4.721-8.49366,1.4401-16.84781,5.62828-22.20267,12.50854a25.43344,25.43344,0,0,0-3.7335,24.80191c3.0507,8.00993,9.85785,14.92789,18.5025,16.50519,8.7257,1.59209,17.8422-2.43156,23.29072-9.28058a22.36437,22.36437,0,0,0,2.1325-24.58275c-4.48173-8.6635-13.22555-14.65339-21.74245-18.88038A162.28474,162.28474,0,0,0,338.862,280.0539a182.68269,182.68269,0,0,0-72.47144-2.85349,186.93513,186.93513,0,0,0-18.27835,3.93038,1.38171,1.38171,0,0,0,.734,2.66243Z" transform="translate(-156 -152.67557)" fill="#6c63ff"/><path d="M536.91334,457.89341c9.76864-13.11805,19.75683-27.03237,23.97363-43.08148a51.75575,51.75575,0,0,0,.89984-23.50089,50.69534,50.69534,0,0,0-8.34763-18.88217c-8.30229-11.79275-20.54265-20.55678-33.56777-26.47317-16.13042-7.32692-33.52539-11.08387-50.361-16.36723-15.51858-4.87-31.42937-11.2246-43.022-23.061-10.953-11.18331-17.15889-28.01642-11.04992-43.15705,5.54294-13.73777,19.0512-22.84807,32.53581-27.65764,16.533-5.89684,34.24049-6.95836,51.088-11.632,14.08485-3.90725,28.49918-10.56947,37.22009-22.80211,7.39058-10.36661,9.763-25.316,3.8554-36.9026a26.062,26.062,0,0,0-5.72239-7.44813c-1.314-1.1908-3.27242.75606-1.95236,1.95236,9.96208,9.02817,10.08053,24.4745,4.46779,35.90866-6.59019,13.4254-20.81936,21.073-34.51537,25.41679-16.30161,5.17019-33.55236,6.27373-49.93278,11.1382-14.0002,4.15763-27.69552,11.612-35.93418,24.07077A37.33,37.33,0,0,0,410.23,275.55835a44.10711,44.10711,0,0,0,5.94915,21.877c7.78852,13.82828,21.67039,22.77357,35.95725,28.80976,30.037,12.6906,65.67009,14.62855,90.41687,37.89605,10.62725,9.992,17.84345,23.2632,17.42677,38.12935-.45958,16.3971-9.225,31.31548-18.34175,44.41744-2.30709,3.31558-4.69672,6.57245-7.10907,9.81193-1.06186,1.42594,1.33374,2.804,2.38409,1.39356Z" transform="translate(-156 -152.67557)" fill="#6c63ff"/><path d="M311.41289,159.68975a29.21923,29.21923,0,0,1,12.00353,24.19639,28.87325,28.87325,0,0,1-13.65048,23.63641c-7.66773,4.526-18.4448,5.09553-24.55045-2.3004a15.09471,15.09471,0,0,1-3.51065-10.77739,11.83176,11.83176,0,0,1,6.11155-9.04722c7.74551-4.41934,17.02888-1.8175,24.18674,2.41707,4.4305,2.62107,8.48462,5.80963,12.72082,8.72144a72.69091,72.69091,0,0,0,12.899,7.12517c18.0343,7.6177,39.19472,7.70829,56.97246-.71215a67.82966,67.82966,0,0,0,34.726-38.76064,61.74476,61.74476,0,0,0,1.79816-6.35232c.39315-1.73009-2.26821-2.46876-2.66243-.734-4.14861,18.256-16.82337,34.04228-33.43111,42.56339-18.10246,9.288-40.45293,9.02822-58.75.39138a86.37247,86.37247,0,0,1-13.35809-8.16172c-4.31612-3.0932-8.62023-6.28736-13.44506-8.5579-7.58426-3.56913-17.51122-4.57358-24.62347.70522a14.48836,14.48836,0,0,0-5.90569,10.40228,17.54588,17.54588,0,0,0,3.534,11.72621c5.91574,7.97994,16.56492,9.11,25.29981,5.42572,9.18711-3.875,15.80587-12.6487,17.77024-22.34462a31.6887,31.6887,0,0,0-12.74137-31.94642c-1.44491-1.039-2.82484,1.35491-1.39356,2.3841Z" transform="translate(-156 -152.67557)" fill="#6c63ff"/><path d="M604.22344,457.36267a92.19229,92.19229,0,0,1,17.10453-36.58,96.70191,96.70191,0,0,1,30.78855-26.21722,89.25077,89.25077,0,0,1,21.3478-8.16011c1.72669-.41586.99555-3.079-.734-2.66243A94.82159,94.82159,0,0,0,635.63857,402.228a99.06958,99.06958,0,0,0-26.165,32.1992,92.13631,92.13631,0,0,0-7.91251,22.20147c-.37324,1.73257,2.28782,2.4729,2.66243.734Z" transform="translate(-156 -152.67557)" fill="#6c63ff"/><path d="M589.56329,157.33736c-5.88672.05927-10.85109,4.13393-13.26207,9.32918-2.73606,5.89573-1.98766,12.3838.94518,18.06421,6.842,13.25172,21.78125,17.948,32.53824,27.1103,4.99079,4.25089,9.34067,9.66005,10.4859,16.279,1.11632,6.45192-1.188,13.1011-4.963,18.293-4.12188,5.669-10.33773,9.56649-16.81317,12.02453a64.43163,64.43163,0,0,1-20.81522,4.17311c-6.87892.19489-14.1522-1.00705-19.849-5.11072a20.99107,20.99107,0,0,1-8.62734-14.51429,14.09967,14.09967,0,0,1,6.377-13.4186,20.54192,20.54192,0,0,1,14.78175-2.39878c12.59,2.488,19.11177,14.9809,21.89578,26.4332,3.54507,14.583,2.137,30.08621,7.58947,44.25643a58.62679,58.62679,0,0,0,24.08382,28.82859c12.57694,7.65022,26.1181,10.12636,40.38948,6.38938a59.25359,59.25359,0,0,0,10.5537-3.92616c1.60205-.76684.203-3.1483-1.39356-2.38409-14.18681,6.7907-28.702,7.00756-42.9793.31584a55.83461,55.83461,0,0,1-26.78749-27.10209c-6.46-14.05953-5.17565-29.84611-8.25078-44.69683-2.47518-11.95339-8.48721-25.2776-20.76852-29.77211-9.88294-3.6168-23.12863-.80933-27.24276,9.83343-2.1506,5.56333-.90627,11.92462,2.0478,16.947a25.861,25.861,0,0,0,14.76368,11.39413c6.92649,2.2013,14.40043,2.01682,21.50475.89645a60.47258,60.47258,0,0,0,20.41177-6.7057,34.4544,34.4544,0,0,0,14.19524-14.51407c2.95063-6.0151,3.90019-13.01567,1.65672-19.42568-4.95679-14.16246-19.9476-20.01013-31.13889-28.199-5.514-4.03467-10.6901-9.3344-12.74466-16.01258a15.95264,15.95264,0,0,1,4.04035-16.56431,10.9765,10.9765,0,0,1,7.37518-3.06175,1.38136,1.38136,0,0,0,0-2.76106Z" transform="translate(-156 -152.67557)" fill="#6c63ff"/><circle cx="378.26575" cy="203.48649" r="53.38043" fill="#6c63ff"/><circle cx="392.07104" cy="62.6726" r="21.1681" fill="#6c63ff"/><circle cx="133.45206" cy="78.31859" r="21.1681" fill="#6c63ff"/><polygon points="736.394 439.563 750.583 345.019 739.043 447.083 736.394 439.563" opacity="0.2"/><circle cx="759.58268" cy="19.01937" r="16" fill="#2f2e41"/><path d="M899.09607,167.77789a15.9874,15.9874,0,0,1,15.99242-14.95425c-.33039-.04192-.65781-.09287-.9947-.11453a16,16,0,1,0-2.05313,31.93406c.33689.02166.66814.013,1.00117.01379A15.98739,15.98739,0,0,1,899.09607,167.77789Z" transform="translate(-156 -152.67557)" fill="#2f2e41"/><ellipse cx="719.58268" cy="61.01937" rx="5" ry="7" fill="#ffb8b8"/><polygon points="709.583 192.019 687.407 265.497 714.583 184.633 709.583 192.019" opacity="0.2"/></svg>